<svg xmlns="http://www.w3.org/2000/svg" viewBox="0 0 512 512" style="enable-background:new 0 0 512 512" xml:space="preserve"><path style="fill:#a3875e" d="M255.999 177.491c-28.553.185-51.615 18.656-51.615 41.413 0 22.747 23.062 41.229 51.615 41.413 28.553-.185 51.615-18.667 51.615-41.413.001-22.757-23.061-41.228-51.615-41.413zM80.405 486.074H38.893c0-15.812 6.414-30.126 16.767-40.491 10.364-10.365 24.678-16.767 40.481-16.767 20.262 0 36.671-16.409 36.671-36.671v-242.61c0-68.122 55.109-123.372 123.188-123.601 68.078.228 123.188 55.479 123.188 123.601v242.611c0 10.126 4.103 19.296 10.733 25.938 6.642 6.631 15.801 10.733 25.938 10.733 15.801 0 30.116 6.403 40.481 16.767 10.353 10.364 16.767 24.678 16.767 40.491H351.255c-15.791 0-28.596-12.806-28.596-28.608v-82.599c0-18.406-7.467-35.064-19.524-47.133-12.057-12.057-28.727-19.513-47.133-19.513-36.812 0-66.656 29.834-66.656 66.646v82.599c0 15.801-12.806 28.608-28.596 28.608H80.405v-.001z"/><path style="fill:#dbb67e" d="M351.253 486.074H160.747c15.791 0 28.596-12.806 28.596-28.608v-82.599c0-36.812 29.844-66.646 66.656-66.646 18.406 0 35.076 7.456 47.133 19.513 12.057 12.068 19.524 28.727 19.524 47.133v82.599c.001 15.803 12.806 28.608 28.597 28.608zM255.999 177.491c28.553.185 51.615 18.656 51.615 41.413 0 22.747-23.062 41.229-51.615 41.413-28.553-.185-51.615-18.667-51.615-41.413.001-22.757 23.063-41.228 51.615-41.413z"/><path d="M326.417 47.674c-3.749 4.505-3.136 11.196 1.369 14.945 1.236 1.029 2.468 2.1 3.662 3.181a10.574 10.574 0 0 0 7.125 2.751c2.891 0 5.771-1.174 7.865-3.484 3.937-4.342 3.608-11.053-.733-14.991a139.878 139.878 0 0 0-4.342-3.772c-4.506-3.747-11.198-3.134-14.946 1.37zM219.861 123.683c2.717 0 5.432-1.037 7.504-3.109 4.144-4.144 4.143-10.864-.001-15.008l-6.49-6.489c-4.143-4.145-10.864-4.144-15.008.001-4.144 4.144-4.143 10.864.001 15.008l6.49 6.489a10.58 10.58 0 0 0 7.504 3.108zM212.846 256.35c11.377 9.127 26.333 14.271 42.26 14.557.154.006.305.023.459.023h.868c.132 0 .26-.015.389-.02 15.913-.259 30.92-5.408 42.329-14.561 12.299-9.864 19.073-23.163 19.073-37.446 0-14.287-6.774-27.587-19.073-37.45-11.377-9.123-26.332-14.266-42.26-14.551-.153-.006-.303-.023-.458-.023h-.868c-.132 0-.259.015-.389.02-15.914.259-30.92 5.407-42.329 14.555-12.299 9.863-19.073 23.163-19.073 37.45 0 14.283 6.772 27.582 19.072 37.446zm43.12-68.245c22.631.159 41.037 13.971 41.037 30.799 0 16.83-18.406 30.641-40.968 30.8-22.631-.159-41.037-13.971-41.037-30.8 0-16.828 18.405-30.64 40.968-30.799zM299.641 120.574l6.49-6.489c4.144-4.143 4.145-10.862.001-15.008-4.142-4.143-10.862-4.144-15.008-.001l-6.49 6.489c-4.144 4.143-4.145 10.862-.001 15.008a10.574 10.574 0 0 0 7.504 3.109 10.571 10.571 0 0 0 7.504-3.108z"/><path d="M250.411 229.517h11.178c5.86 0 10.612-4.752 10.612-10.612s-4.752-10.612-10.612-10.612h-11.178c-5.86 0-10.612 4.752-10.612 10.612s4.751 10.612 10.612 10.612z"/><path d="M501.388 475.462h-18.501c-2.201-14.09-8.764-27.091-19.043-37.383-12.817-12.817-29.859-19.875-47.985-19.875-6.963 0-13.51-2.71-18.427-7.619-4.922-4.929-7.631-11.478-7.631-18.439v-91.498l7.948 4.589a10.61 10.61 0 0 0 14.495-3.887c2.93-5.076 1.189-11.565-3.887-14.495L389.8 276.141v-46.624h33.928c5.86 0 10.612-4.752 10.612-10.612s-4.752-10.612-10.612-10.612H389.8v-46.631l18.559-10.718c5.075-2.931 6.814-9.421 3.882-14.496-2.931-5.076-9.419-6.819-14.496-3.882l-8.503 4.91c-1.828-20.373-8.257-40.071-18.896-57.571-3.045-5.007-9.571-6.598-14.581-3.555-5.008 3.045-6.6 9.573-3.555 14.581 10.685 17.576 16.341 37.794 16.364 58.481l-30.214 17.447c-5.075 2.932-6.814 9.421-3.883 14.497a10.61 10.61 0 0 0 14.497 3.883l19.602-11.32v34.375H355.15c-5.86 0-10.612 4.752-10.612 10.612s4.752 10.612 10.612 10.612h13.426v34.371l-19.602-11.317c-5.078-2.931-11.566-1.19-14.497 3.883-2.931 5.076-1.192 11.566 3.883 14.497l30.216 17.443v103.75c0 9.425 2.741 18.43 7.847 26.113H359.73c-5.86 0-10.612 4.752-10.612 10.612s4.752 10.612 10.612 10.612h58.289l.032-.001c11.634.535 22.496 5.316 30.781 13.603 6.252 6.257 10.497 13.976 12.444 22.379h-19.068v-7.837c0-5.86-4.752-10.612-10.612-10.612s-10.612 4.752-10.612 10.612v7.837h-15.468v-7.837c0-5.86-4.752-10.612-10.612-10.612s-10.612 4.752-10.612 10.612v7.837h-33.037c-9.917 0-17.984-8.072-17.984-17.995v-82.6c0-20.626-8.036-40.028-22.632-54.635-14.586-14.588-33.989-22.622-54.636-22.622-42.606 0-77.269 34.658-77.269 77.258v82.6c0 9.923-8.068 17.995-17.984 17.995h-33.037v-7.837c0-5.86-4.752-10.612-10.612-10.612s-10.612 4.752-10.612 10.612v7.837H91.017v-7.837c0-5.86-4.752-10.612-10.612-10.612s-10.612 4.752-10.612 10.612v7.837H50.724c1.946-8.402 6.192-16.12 12.439-22.374 8.289-8.29 19.152-13.072 30.786-13.607l.032.001h58.289c5.86 0 10.612-4.752 10.612-10.612s-4.752-10.612-10.612-10.612h-16.736a47.005 47.005 0 0 0 7.891-26.113V290.043l33.067-19.09c5.076-2.93 6.816-9.42 3.886-14.496-2.931-5.076-9.42-6.816-14.496-3.886l-22.457 12.965v-36.019h16.281c5.86 0 10.612-4.752 10.612-10.612s-4.752-10.612-10.612-10.612h-16.281v-36.021l22.455 12.968a10.613 10.613 0 0 0 14.497-3.883c2.931-5.075 1.192-11.565-3.883-14.497l-33.047-19.085c.944-61.276 51.063-111.001 112.551-111.227 16.471.06 32.333 3.581 47.143 10.462 1.446.673 2.968.991 4.464.991a10.61 10.61 0 0 0 9.63-6.142c2.47-5.315.163-11.625-5.151-14.095-17.364-8.069-35.933-12.245-55.2-12.428-.151-.006-.298-.022-.451-.022-.141 0-.289.004-.434.007-.145-.003-.293-.007-.434-.007-.15 0-.294.016-.443.022-68.78.655-125.412 53.437-132.234 120.568l-5.78-3.339c-5.077-2.931-11.565-1.191-14.497 3.883-2.931 5.075-1.192 11.565 3.883 14.497l15.706 9.07v48.278H91.138c-5.86 0-10.612 4.752-10.612 10.612s4.752 10.612 10.612 10.612H122.2v48.271l-15.706 9.067c-5.075 2.932-6.814 9.421-3.883 14.497a10.61 10.61 0 0 0 14.497 3.883l5.092-2.94v89.849c0 14.369-11.69 26.059-26.059 26.059-18.126 0-35.168 7.058-47.99 19.88-10.276 10.287-16.838 23.288-19.039 37.379h-18.5C4.752 475.462 0 480.214 0 486.074s4.752 10.612 10.612 10.612h490.776c5.86 0 10.612-4.752 10.612-10.612s-4.752-10.612-10.612-10.612zm-301.433-17.995v-82.6c0-30.897 25.141-56.034 56.045-56.034 14.977 0 29.05 5.826 39.625 16.402 10.589 10.597 16.42 24.672 16.42 39.632v82.6a38.98 38.98 0 0 0 4.388 17.995H195.566a38.969 38.969 0 0 0 4.389-17.995z"/></svg>